<svg width="24" height="24" viewBox="0 0 24 24" fill="none" xmlns="http://www.w3.org/2000/svg">
<path d="M9.71426 9.14286V6.85715V9.14286ZM14.2857 9.14286V6.85715V9.14286ZM9.14283 11.4286H14.8571H9.14283ZM7.99997 17.1429H16C16.3031 17.1429 16.5938 17.0225 16.8081 16.8081C17.0224 16.5938 17.1428 16.3031 17.1428 16V9.14286C17.1428 8.83976 17.0224 8.54907 16.8081 8.33474C16.5938 8.12041 16.3031 8 16 8H7.99997C7.69687 8 7.40618 8.12041 7.19185 8.33474C6.97752 8.54907 6.85712 8.83976 6.85712 9.14286V16C6.85712 16.3031 6.97752 16.5938 7.19185 16.8081C7.40618 17.0225 7.69687 17.1429 7.99997 17.1429Z" stroke="#96999C" stroke-linecap="round" stroke-linejoin="round"/>
<rect x="0.5" y="0.5" width="23" height="23" rx="11.5" stroke="#96999C" stroke-dasharray="2 2"/>
</svg>
